<svg width="430" height="932" viewBox="0 0 430 932" fill="none" xmlns="http://www.w3.org/2000/svg">
<g clip-path="url(#clip0_4_253)">
<rect width="430" height="932" fill="#F0FFF2"/>
<rect width="430" height="204" fill="#016D3B"/>
<path d="M107.92 59H104.135V56.3651H107.793C108.702 56.3651 109.466 56.2041 110.087 55.8821C110.712 55.5554 111.18 55.0511 111.493 54.3693C111.81 53.6828 111.969 52.7973 111.969 51.7131C111.969 50.6383 111.81 49.7599 111.493 49.0781C111.18 48.3963 110.714 47.8944 110.094 47.5724C109.473 47.2505 108.709 47.0895 107.8 47.0895H104.071V44.4545H107.963C109.426 44.4545 110.686 44.7457 111.741 45.3281C112.797 45.9058 113.609 46.7367 114.178 47.821C114.75 48.9053 115.037 50.2027 115.037 51.7131C115.037 53.2282 114.75 54.5303 114.178 55.6193C113.609 56.7083 112.793 57.544 111.727 58.1264C110.667 58.7088 109.398 59 107.92 59ZM105.839 44.4545V59H102.764V44.4545H105.839ZM100.747 52.2244V50.4347H107.828V52.2244H100.747ZM120.369 59.206C119.673 59.206 119.053 59.0852 118.508 58.8438C117.964 58.5975 117.533 58.2353 117.216 57.7571C116.903 57.2741 116.747 56.6728 116.747 55.9531C116.747 55.3471 116.858 54.8381 117.081 54.4261C117.303 54.0142 117.606 53.6828 117.99 53.4318C118.373 53.1809 118.809 52.9915 119.297 52.8636C119.789 52.7358 120.305 52.6458 120.845 52.5938C121.479 52.5275 121.991 52.4659 122.379 52.4091C122.767 52.3475 123.049 52.2576 123.224 52.1392C123.399 52.0208 123.487 51.8456 123.487 51.6136V51.571C123.487 51.1212 123.345 50.7732 123.061 50.527C122.781 50.2808 122.384 50.1577 121.868 50.1577C121.323 50.1577 120.89 50.2784 120.568 50.5199C120.246 50.7566 120.033 51.0549 119.929 51.4148L117.13 51.1875C117.272 50.5246 117.552 49.9517 117.968 49.4688C118.385 48.9811 118.922 48.607 119.581 48.3466C120.243 48.0814 121.011 47.9489 121.882 47.9489C122.488 47.9489 123.068 48.0199 123.622 48.1619C124.181 48.304 124.675 48.5241 125.106 48.8224C125.542 49.1207 125.885 49.5043 126.136 49.973C126.387 50.437 126.512 50.9934 126.512 51.642V59H123.643V57.4872H123.558C123.383 57.8281 123.148 58.1288 122.855 58.3892C122.561 58.6449 122.208 58.8461 121.797 58.9929C121.385 59.1349 120.909 59.206 120.369 59.206ZM121.235 57.1179C121.681 57.1179 122.074 57.0303 122.414 56.8551C122.755 56.6752 123.023 56.4337 123.217 56.1307C123.411 55.8277 123.508 55.4844 123.508 55.1009V53.9432C123.413 54.0047 123.283 54.0616 123.118 54.1136C122.957 54.161 122.774 54.206 122.571 54.2486C122.367 54.2865 122.163 54.322 121.96 54.3551C121.756 54.3835 121.572 54.4096 121.406 54.4332C121.051 54.4853 120.741 54.5682 120.475 54.6818C120.21 54.7955 120.004 54.9493 119.858 55.1435C119.711 55.3329 119.637 55.5696 119.637 55.8537C119.637 56.2656 119.787 56.5805 120.085 56.7983C120.388 57.0114 120.771 57.1179 121.235 57.1179ZM123.402 44.2841H125.511C125.506 45.1458 125.187 45.8395 124.552 46.3651C123.922 46.8906 123.07 47.1534 121.995 47.1534C120.916 47.1534 120.061 46.8906 119.431 46.3651C118.802 45.8395 118.487 45.1458 118.487 44.2841H120.582C120.577 44.6108 120.681 44.9044 120.895 45.1648C121.112 45.4252 121.479 45.5554 121.995 45.5554C122.497 45.5554 122.857 45.4276 123.075 45.1719C123.293 44.9162 123.402 44.6203 123.402 44.2841ZM121.875 63.0838C121.425 63.0838 121.039 62.9347 120.717 62.6364C120.395 62.3381 120.234 61.9782 120.234 61.5568C120.234 61.1354 120.395 60.7756 120.717 60.4773C121.039 60.179 121.425 60.0298 121.875 60.0298C122.324 60.0298 122.708 60.179 123.025 60.4773C123.347 60.7756 123.508 61.1354 123.508 61.5568C123.508 61.9782 123.347 62.3381 123.025 62.6364C122.708 62.9347 122.324 63.0838 121.875 63.0838ZM134.662 48.0909V50.3636H128.093V48.0909H134.662ZM129.584 45.4773H132.61V55.6477C132.61 55.9271 132.652 56.1449 132.738 56.3011C132.823 56.4527 132.941 56.5592 133.093 56.6207C133.249 56.6823 133.429 56.7131 133.632 56.7131C133.775 56.7131 133.917 56.7012 134.059 56.6776C134.201 56.6491 134.31 56.6278 134.385 56.6136L134.861 58.8651C134.71 58.9124 134.497 58.9669 134.222 59.0284C133.947 59.0947 133.614 59.1349 133.221 59.1491C132.491 59.1776 131.852 59.0805 131.303 58.858C130.758 58.6354 130.335 58.2898 130.032 57.821C129.729 57.3523 129.579 56.7604 129.584 56.0455V45.4773ZM144.288 44.4545V59H141.262V44.4545H144.288ZM146.711 59V48.0909H149.737V59H146.711ZM148.231 46.6847C147.781 46.6847 147.395 46.5355 147.074 46.2372C146.756 45.9342 146.598 45.572 146.598 45.1506C146.598 44.7339 146.756 44.3764 147.074 44.0781C147.395 43.7751 147.781 43.6236 148.231 43.6236C148.681 43.6236 149.065 43.7751 149.382 44.0781C149.704 44.3764 149.865 44.7339 149.865 45.1506C149.865 45.572 149.704 45.9342 149.382 46.2372C149.065 46.5355 148.681 46.6847 148.231 46.6847ZM148.252 63.0838C147.803 63.0838 147.417 62.9347 147.095 62.6364C146.773 62.3381 146.612 61.9782 146.612 61.5568C146.612 61.1354 146.773 60.7756 147.095 60.4773C147.417 60.179 147.803 60.0298 148.252 60.0298C148.702 60.0298 149.086 60.179 149.403 60.4773C149.725 60.7756 149.886 61.1354 149.886 61.5568C149.886 61.9782 149.725 62.3381 149.403 62.6364C149.086 62.9347 148.702 63.0838 148.252 63.0838ZM157.089 59.2131C155.972 59.2131 155.011 58.9763 154.206 58.5028C153.406 58.0246 152.79 57.3617 152.359 56.5142C151.933 55.6667 151.72 54.6913 151.72 53.5881C151.72 52.4706 151.936 51.4905 152.366 50.6477C152.802 49.8002 153.42 49.1397 154.22 48.6662C155.02 48.188 155.972 47.9489 157.075 47.9489C158.027 47.9489 158.86 48.1217 159.575 48.4673C160.29 48.813 160.856 49.2983 161.273 49.9233C161.689 50.5483 161.919 51.2822 161.962 52.125H159.107C159.026 51.5805 158.813 51.1425 158.467 50.8111C158.126 50.4749 157.679 50.3068 157.125 50.3068C156.656 50.3068 156.247 50.4347 155.896 50.6903C155.551 50.9413 155.281 51.3082 155.087 51.7912C154.893 52.2741 154.795 52.8589 154.795 53.5455C154.795 54.2415 154.89 54.8333 155.08 55.321C155.274 55.8087 155.546 56.1804 155.896 56.4361C156.247 56.6918 156.656 56.8196 157.125 56.8196C157.471 56.8196 157.781 56.7486 158.055 56.6065C158.335 56.4645 158.564 56.2585 158.744 55.9886C158.929 55.714 159.05 55.3849 159.107 55.0014H161.962C161.914 55.8348 161.687 56.5687 161.28 57.2031C160.877 57.8329 160.321 58.3253 159.611 58.6804C158.901 59.0355 158.06 59.2131 157.089 59.2131ZM166.924 52.6932V59H163.899V44.4545H166.839V50.0156H166.967C167.213 49.3717 167.611 48.8674 168.16 48.5028C168.709 48.1335 169.398 47.9489 170.227 47.9489C170.984 47.9489 171.645 48.1146 172.208 48.446C172.777 48.7727 173.217 49.2438 173.529 49.8594C173.847 50.4702 174.003 51.2017 173.998 52.054V59H170.973V52.5938C170.977 51.9214 170.807 51.3982 170.461 51.0241C170.12 50.6501 169.642 50.4631 169.027 50.4631C168.615 50.4631 168.25 50.5507 167.933 50.7259C167.62 50.901 167.374 51.1567 167.194 51.4929C167.019 51.8243 166.929 52.2244 166.924 52.6932ZM184.034 52.6932V59H181.008V48.0909H183.892V50.0156H184.02C184.261 49.3812 184.666 48.8793 185.234 48.5099C185.802 48.1359 186.491 47.9489 187.301 47.9489C188.058 47.9489 188.719 48.1146 189.282 48.446C189.846 48.7775 190.284 49.2509 190.596 49.8665C190.909 50.4773 191.065 51.2064 191.065 52.054V59H188.039V52.5938C188.044 51.9261 187.874 51.4053 187.528 51.0312C187.182 50.6525 186.707 50.4631 186.1 50.4631C185.693 50.4631 185.333 50.5507 185.021 50.7259C184.713 50.901 184.472 51.1567 184.297 51.4929C184.126 51.8243 184.038 52.2244 184.034 52.6932ZM198.364 63.3182C197.384 63.3182 196.544 63.1832 195.843 62.9134C195.147 62.6482 194.593 62.286 194.181 61.8267C193.769 61.3674 193.502 60.8513 193.379 60.2784L196.177 59.902C196.262 60.1198 196.397 60.3234 196.582 60.5128C196.766 60.7022 197.01 60.8537 197.313 60.9673C197.621 61.0857 197.995 61.1449 198.435 61.1449C199.094 61.1449 199.636 60.9839 200.062 60.6619C200.493 60.3447 200.708 59.812 200.708 59.0639V57.0682H200.58C200.448 57.3712 200.249 57.6577 199.984 57.9276C199.719 58.1974 199.378 58.4176 198.961 58.5881C198.544 58.7585 198.047 58.8438 197.469 58.8438C196.65 58.8438 195.905 58.6544 195.232 58.2756C194.565 57.892 194.032 57.3073 193.634 56.5213C193.241 55.7306 193.045 54.7315 193.045 53.5241C193.045 52.2884 193.246 51.2562 193.648 50.4276C194.051 49.599 194.586 48.9787 195.254 48.5668C195.926 48.1548 196.662 47.9489 197.462 47.9489C198.073 47.9489 198.585 48.053 198.996 48.2614C199.408 48.465 199.74 48.7206 199.991 49.0284C200.246 49.3314 200.443 49.6297 200.58 49.9233H200.694V48.0909H203.698V59.1065C203.698 60.0346 203.471 60.8111 203.016 61.4361C202.562 62.0611 201.932 62.5298 201.127 62.8423C200.327 63.1596 199.406 63.3182 198.364 63.3182ZM198.428 56.571C198.916 56.571 199.328 56.4503 199.664 56.2088C200.005 55.9626 200.265 55.6122 200.445 55.1577C200.63 54.6984 200.722 54.1491 200.722 53.5099C200.722 52.8707 200.632 52.3168 200.452 51.848C200.272 51.3745 200.012 51.0076 199.671 50.7472C199.33 50.4867 198.916 50.3565 198.428 50.3565C197.931 50.3565 197.512 50.4915 197.171 50.7614C196.83 51.0265 196.572 51.3958 196.397 51.8693C196.222 52.3428 196.134 52.8897 196.134 53.5099C196.134 54.1397 196.222 54.6842 196.397 55.1435C196.577 55.598 196.835 55.9508 197.171 56.2017C197.512 56.4479 197.931 56.571 198.428 56.571ZM209.217 59.206C208.521 59.206 207.9 59.0852 207.356 58.8438C206.811 58.5975 206.38 58.2353 206.063 57.7571C205.751 57.2741 205.594 56.6728 205.594 55.9531C205.594 55.3471 205.706 54.8381 205.928 54.4261C206.151 54.0142 206.454 53.6828 206.837 53.4318C207.221 53.1809 207.656 52.9915 208.144 52.8636C208.637 52.7358 209.153 52.6458 209.692 52.5938C210.327 52.5275 210.838 52.4659 211.227 52.4091C211.615 52.3475 211.897 52.2576 212.072 52.1392C212.247 52.0208 212.335 51.8456 212.335 51.6136V51.571C212.335 51.1212 212.192 50.7732 211.908 50.527C211.629 50.2808 211.231 50.1577 210.715 50.1577C210.171 50.1577 209.737 50.2784 209.415 50.5199C209.094 50.7566 208.88 51.0549 208.776 51.4148L205.978 51.1875C206.12 50.5246 206.399 49.9517 206.816 49.4688C207.233 48.9811 207.77 48.607 208.428 48.3466C209.091 48.0814 209.858 47.9489 210.729 47.9489C211.335 47.9489 211.915 48.0199 212.469 48.1619C213.028 48.304 213.523 48.5241 213.954 48.8224C214.389 49.1207 214.733 49.5043 214.984 49.973C215.235 50.437 215.36 50.9934 215.36 51.642V59H212.491V57.4872H212.406C212.23 57.8281 211.996 58.1288 211.702 58.3892C211.409 58.6449 211.056 58.8461 210.644 58.9929C210.232 59.1349 209.756 59.206 209.217 59.206ZM210.083 57.1179C210.528 57.1179 210.921 57.0303 211.262 56.8551C211.603 56.6752 211.871 56.4337 212.065 56.1307C212.259 55.8277 212.356 55.4844 212.356 55.1009V53.9432C212.261 54.0047 212.131 54.0616 211.965 54.1136C211.804 54.161 211.622 54.206 211.418 54.2486C211.215 54.2865 211.011 54.322 210.808 54.3551C210.604 54.3835 210.419 54.4096 210.254 54.4332C209.898 54.4853 209.588 54.5682 209.323 54.6818C209.058 54.7955 208.852 54.9493 208.705 55.1435C208.558 55.3329 208.485 55.5696 208.485 55.8537C208.485 56.2656 208.634 56.5805 208.933 56.7983C209.236 57.0114 209.619 57.1179 210.083 57.1179ZM209.792 46.6847L207.626 43.4531H210.417L211.93 46.6847H209.792ZM219.185 63.0909C218.801 63.0909 218.441 63.0601 218.105 62.9986C217.774 62.9418 217.499 62.8684 217.281 62.7784L217.963 60.5199C218.318 60.6288 218.638 60.688 218.922 60.6974C219.211 60.7069 219.459 60.6406 219.668 60.4986C219.881 60.3565 220.054 60.1151 220.186 59.7741L220.364 59.3125L216.45 48.0909H219.632L221.891 56.1023H222.004L224.284 48.0909H227.487L223.247 60.179C223.044 60.7661 222.767 61.2775 222.416 61.7131C222.071 62.1534 221.633 62.492 221.102 62.7287C220.572 62.9702 219.933 63.0909 219.185 63.0909ZM239.467 48.0909V50.3636H232.897V48.0909H239.467ZM234.389 45.4773H237.414V55.6477C237.414 55.9271 237.457 56.1449 237.542 56.3011C237.627 56.4527 237.746 56.5592 237.897 56.6207C238.054 56.6823 238.234 56.7131 238.437 56.7131C238.579 56.7131 238.721 56.7012 238.863 56.6776C239.005 56.6491 239.114 56.6278 239.19 56.6136L239.666 58.8651C239.514 58.9124 239.301 58.9669 239.027 59.0284C238.752 59.0947 238.418 59.1349 238.025 59.1491C237.296 59.1776 236.657 59.0805 236.108 58.858C235.563 58.6354 235.139 58.2898 234.836 57.821C234.533 57.3523 234.384 56.7604 234.389 56.0455V45.4773ZM241.438 59V48.0909H244.371V49.9943H244.485C244.684 49.3172 245.017 48.8059 245.486 48.4602C245.955 48.1098 246.495 47.9347 247.105 47.9347C247.257 47.9347 247.42 47.9441 247.596 47.9631C247.771 47.982 247.925 48.008 248.057 48.0412V50.7259C247.915 50.6832 247.719 50.6454 247.468 50.6122C247.217 50.5791 246.987 50.5625 246.779 50.5625C246.334 50.5625 245.936 50.6596 245.586 50.8537C245.24 51.0431 244.965 51.3082 244.762 51.6491C244.563 51.9901 244.463 52.383 244.463 52.8281V59H241.438ZM261.156 47.4872H262.91C262.905 48.3111 262.782 49.0024 262.54 49.5611C262.299 50.1151 261.889 50.5317 261.312 50.8111C260.739 51.0904 259.955 51.2301 258.961 51.2301V49.8807C259.619 49.8807 260.102 49.7931 260.41 49.6179C260.722 49.4427 260.924 49.1799 261.013 48.8295C261.108 48.4744 261.156 48.027 261.156 47.4872ZM256.688 54.3551V48.0909H259.707V59H256.809V57.0185H256.695C256.449 57.6577 256.04 58.1714 255.467 58.5597C254.898 58.9479 254.205 59.142 253.386 59.142C252.656 59.142 252.015 58.9763 251.461 58.6449C250.907 58.3134 250.474 57.8423 250.161 57.2315C249.853 56.6207 249.697 55.8892 249.692 55.0369V48.0909H252.718V54.4972C252.718 55.1411 252.888 55.6501 253.229 56.0241C253.575 56.3982 254.034 56.5852 254.607 56.5852C254.972 56.5852 255.31 56.5024 255.623 56.3366C255.94 56.1662 256.196 55.9152 256.39 55.5838C256.589 55.2524 256.688 54.8428 256.688 54.3551ZM255.161 63.0838C254.711 63.0838 254.326 62.9347 254.004 62.6364C253.682 62.3381 253.521 61.9782 253.521 61.5568C253.521 61.1354 253.682 60.7756 254.004 60.4773C254.326 60.179 254.711 60.0298 255.161 60.0298C255.611 60.0298 255.995 60.179 256.312 60.4773C256.634 60.7756 256.795 61.1354 256.795 61.5568C256.795 61.9782 256.634 62.3381 256.312 62.6364C255.995 62.9347 255.611 63.0838 255.161 63.0838ZM268.73 59.2131C267.613 59.2131 266.652 58.9763 265.847 58.5028C265.046 58.0246 264.431 57.3617 264 56.5142C263.574 55.6667 263.361 54.6913 263.361 53.5881C263.361 52.4706 263.576 51.4905 264.007 50.6477C264.443 49.8002 265.061 49.1397 265.861 48.6662C266.661 48.188 267.613 47.9489 268.716 47.9489C269.668 47.9489 270.501 48.1217 271.216 48.4673C271.931 48.813 272.497 49.2983 272.913 49.9233C273.33 50.5483 273.56 51.2822 273.602 52.125H270.747C270.667 51.5805 270.454 51.1425 270.108 50.8111C269.767 50.4749 269.32 50.3068 268.766 50.3068C268.297 50.3068 267.887 50.4347 267.537 50.6903C267.191 50.9413 266.921 51.3082 266.727 51.7912C266.533 52.2741 266.436 52.8589 266.436 53.5455C266.436 54.2415 266.531 54.8333 266.72 55.321C266.914 55.8087 267.187 56.1804 267.537 56.4361C267.887 56.6918 268.297 56.8196 268.766 56.8196C269.111 56.8196 269.421 56.7486 269.696 56.6065C269.975 56.4645 270.205 56.2585 270.385 55.9886C270.57 55.714 270.69 55.3849 270.747 55.0014H273.602C273.555 55.8348 273.328 56.5687 272.92 57.2031C272.518 57.8329 271.962 58.3253 271.251 58.6804C270.541 59.0355 269.701 59.2131 268.73 59.2131ZM287.377 63.0909V57.2528H287.285C287.143 57.5559 286.942 57.8565 286.681 58.1548C286.425 58.4484 286.092 58.6922 285.68 58.8864C285.272 59.0805 284.775 59.1776 284.188 59.1776C283.36 59.1776 282.609 58.9645 281.937 58.5384C281.269 58.1075 280.739 57.4754 280.346 56.642C279.958 55.804 279.763 54.7765 279.763 53.5597C279.763 52.3097 279.965 51.2704 280.367 50.4418C280.77 49.6084 281.305 48.9858 281.972 48.5739C282.645 48.1572 283.381 47.9489 284.181 47.9489C284.792 47.9489 285.301 48.053 285.708 48.2614C286.12 48.465 286.451 48.7206 286.702 49.0284C286.958 49.3314 287.152 49.6297 287.285 49.9233H287.413V48.0909H290.396V63.0909H287.377ZM285.147 56.7699C285.635 56.7699 286.047 56.6373 286.383 56.3722C286.724 56.1023 286.984 55.7259 287.164 55.2429C287.349 54.7599 287.441 54.1941 287.441 53.5455C287.441 52.8968 287.351 52.3333 287.171 51.8551C286.991 51.3769 286.731 51.0076 286.39 50.7472C286.049 50.4867 285.635 50.3565 285.147 50.3565C284.65 50.3565 284.231 50.4915 283.89 50.7614C283.549 51.0312 283.291 51.4053 283.116 51.8835C282.941 52.3617 282.853 52.9157 282.853 53.5455C282.853 54.1799 282.941 54.741 283.116 55.2287C283.296 55.7116 283.554 56.0904 283.89 56.3651C284.231 56.6349 284.65 56.7699 285.147 56.7699ZM299.82 54.3551V48.0909H302.846V59H299.941V57.0185H299.827C299.581 57.6577 299.172 58.1714 298.599 58.5597C298.031 58.9479 297.337 59.142 296.518 59.142C295.789 59.142 295.147 58.9763 294.593 58.6449C294.039 58.3134 293.606 57.8423 293.293 57.2315C292.986 56.6207 292.829 55.8892 292.825 55.0369V48.0909H295.85V54.4972C295.855 55.1411 296.028 55.6501 296.369 56.0241C296.71 56.3982 297.166 56.5852 297.739 56.5852C298.104 56.5852 298.445 56.5024 298.762 56.3366C299.079 56.1662 299.335 55.9152 299.529 55.5838C299.728 55.2524 299.825 54.8428 299.82 54.3551ZM308.377 59.206C307.681 59.206 307.06 59.0852 306.516 58.8438C305.971 58.5975 305.541 58.2353 305.223 57.7571C304.911 57.2741 304.755 56.6728 304.755 55.9531C304.755 55.3471 304.866 54.8381 305.088 54.4261C305.311 54.0142 305.614 53.6828 305.998 53.4318C306.381 53.1809 306.817 52.9915 307.304 52.8636C307.797 52.7358 308.313 52.6458 308.853 52.5938C309.487 52.5275 309.998 52.4659 310.387 52.4091C310.775 52.3475 311.057 52.2576 311.232 52.1392C311.407 52.0208 311.495 51.8456 311.495 51.6136V51.571C311.495 51.1212 311.353 50.7732 311.069 50.527C310.789 50.2808 310.391 50.1577 309.875 50.1577C309.331 50.1577 308.898 50.2784 308.576 50.5199C308.254 50.7566 308.041 51.0549 307.936 51.4148L305.138 51.1875C305.28 50.5246 305.56 49.9517 305.976 49.4688C306.393 48.9811 306.93 48.607 307.588 48.3466C308.251 48.0814 309.018 47.9489 309.89 47.9489C310.496 47.9489 311.076 48.0199 311.63 48.1619C312.188 48.304 312.683 48.5241 313.114 48.8224C313.55 49.1207 313.893 49.5043 314.144 49.973C314.395 50.437 314.52 50.9934 314.52 51.642V59H311.651V57.4872H311.566C311.391 57.8281 311.156 58.1288 310.863 58.3892C310.569 58.6449 310.216 58.8461 309.804 58.9929C309.392 59.1349 308.917 59.206 308.377 59.206ZM309.243 57.1179C309.688 57.1179 310.081 57.0303 310.422 56.8551C310.763 56.6752 311.031 56.4337 311.225 56.1307C311.419 55.8277 311.516 55.4844 311.516 55.1009V53.9432C311.421 54.0047 311.291 54.0616 311.125 54.1136C310.964 54.161 310.782 54.206 310.578 54.2486C310.375 54.2865 310.171 54.322 309.968 54.3551C309.764 54.3835 309.579 54.4096 309.414 54.4332C309.059 54.4853 308.748 54.5682 308.483 54.6818C308.218 54.7955 308.012 54.9493 307.865 55.1435C307.719 55.3329 307.645 55.5696 307.645 55.8537C307.645 56.2656 307.794 56.5805 308.093 56.7983C308.396 57.0114 308.779 57.1179 309.243 57.1179ZM319.893 52.6932V59H316.868V48.0909H319.751V50.0156H319.879C320.12 49.3812 320.525 48.8793 321.093 48.5099C321.662 48.1359 322.35 47.9489 323.16 47.9489C323.918 47.9489 324.578 48.1146 325.142 48.446C325.705 48.7775 326.143 49.2509 326.456 49.8665C326.768 50.4773 326.924 51.2064 326.924 52.054V59H323.899V52.5938C323.904 51.9261 323.733 51.4053 323.387 51.0312C323.042 50.6525 322.566 50.4631 321.96 50.4631C321.553 50.4631 321.193 50.5507 320.88 50.7259C320.573 50.901 320.331 51.1567 320.156 51.4929C319.985 51.8243 319.898 52.2244 319.893 52.6932Z" fill="white"/>
<rect x="284" y="104" width="134" height="40" rx="8" fill="#5AAE65"/>
<path d="M300.903 128.5V127.733L303.784 124.58C304.122 124.21 304.401 123.889 304.619 123.616C304.838 123.341 305 123.082 305.105 122.841C305.213 122.597 305.267 122.341 305.267 122.074C305.267 121.767 305.193 121.501 305.045 121.277C304.901 121.053 304.702 120.879 304.449 120.757C304.196 120.635 303.912 120.574 303.597 120.574C303.261 120.574 302.969 120.643 302.719 120.783C302.472 120.919 302.28 121.111 302.143 121.358C302.01 121.605 301.943 121.895 301.943 122.227H300.938C300.938 121.716 301.055 121.267 301.291 120.881C301.527 120.494 301.848 120.193 302.254 119.977C302.663 119.761 303.122 119.653 303.631 119.653C304.142 119.653 304.595 119.761 304.99 119.977C305.385 120.193 305.695 120.484 305.919 120.851C306.143 121.217 306.256 121.625 306.256 122.074C306.256 122.395 306.197 122.709 306.081 123.016C305.967 123.32 305.768 123.659 305.484 124.034C305.203 124.406 304.812 124.861 304.312 125.398L302.352 127.494V127.562H306.409V128.5H300.903ZM310.896 128.619C310.396 128.619 309.946 128.52 309.545 128.321C309.145 128.122 308.824 127.849 308.582 127.503C308.341 127.156 308.209 126.761 308.186 126.318H309.209C309.249 126.713 309.428 127.04 309.746 127.298C310.067 127.554 310.45 127.682 310.896 127.682C311.254 127.682 311.572 127.598 311.851 127.43C312.132 127.263 312.352 127.033 312.511 126.74C312.673 126.445 312.754 126.111 312.754 125.739C312.754 125.358 312.67 125.018 312.503 124.72C312.338 124.419 312.111 124.182 311.821 124.009C311.531 123.835 311.2 123.747 310.828 123.744C310.561 123.741 310.287 123.783 310.006 123.868C309.724 123.95 309.493 124.057 309.311 124.188L308.322 124.068L308.851 119.773H313.385V120.71H309.737L309.43 123.284H309.482C309.661 123.142 309.885 123.024 310.155 122.93C310.425 122.837 310.706 122.79 310.999 122.79C311.533 122.79 312.009 122.918 312.426 123.173C312.847 123.426 313.176 123.773 313.415 124.213C313.656 124.653 313.777 125.156 313.777 125.722C313.777 126.278 313.652 126.776 313.402 127.213C313.155 127.648 312.814 127.991 312.379 128.244C311.945 128.494 311.45 128.619 310.896 128.619ZM318.572 119.364L315.76 129.812H314.839L317.652 119.364H318.572ZM322.815 119.773V128.5H321.759V120.881H321.707L319.577 122.295V121.222L321.759 119.773H322.815ZM325.325 128.5V127.733L328.206 124.58C328.544 124.21 328.822 123.889 329.041 123.616C329.26 123.341 329.422 123.082 329.527 122.841C329.635 122.597 329.689 122.341 329.689 122.074C329.689 121.767 329.615 121.501 329.467 121.277C329.322 121.053 329.124 120.879 328.871 120.757C328.618 120.635 328.334 120.574 328.018 120.574C327.683 120.574 327.391 120.643 327.141 120.783C326.893 120.919 326.702 121.111 326.565 121.358C326.432 121.605 326.365 121.895 326.365 122.227H325.359C325.359 121.716 325.477 121.267 325.713 120.881C325.949 120.494 326.27 120.193 326.676 119.977C327.085 119.761 327.544 119.653 328.053 119.653C328.564 119.653 329.017 119.761 329.412 119.977C329.807 120.193 330.116 120.484 330.341 120.851C330.565 121.217 330.678 121.625 330.678 122.074C330.678 122.395 330.619 122.709 330.503 123.016C330.389 123.32 330.19 123.659 329.906 124.034C329.625 124.406 329.234 124.861 328.734 125.398L326.774 127.494V127.562H330.831V128.5H325.325ZM335.693 119.364L332.881 129.812H331.96L334.773 119.364H335.693ZM336.868 128.5V127.733L339.749 124.58C340.087 124.21 340.365 123.889 340.584 123.616C340.803 123.341 340.965 123.082 341.07 122.841C341.178 122.597 341.232 122.341 341.232 122.074C341.232 121.767 341.158 121.501 341.01 121.277C340.865 121.053 340.667 120.879 340.414 120.757C340.161 120.635 339.877 120.574 339.561 120.574C339.226 120.574 338.934 120.643 338.684 120.783C338.436 120.919 338.245 121.111 338.108 121.358C337.975 121.605 337.908 121.895 337.908 122.227H336.902C336.902 121.716 337.02 121.267 337.256 120.881C337.492 120.494 337.813 120.193 338.219 119.977C338.628 119.761 339.087 119.653 339.596 119.653C340.107 119.653 340.56 119.761 340.955 119.977C341.35 120.193 341.659 120.484 341.884 120.851C342.108 121.217 342.221 121.625 342.221 122.074C342.221 122.395 342.162 122.709 342.046 123.016C341.932 123.32 341.733 123.659 341.449 124.034C341.168 124.406 340.777 124.861 340.277 125.398L338.317 127.494V127.562H342.374V128.5H336.868ZM346.98 128.619C346.338 128.619 345.792 128.445 345.34 128.095C344.888 127.743 344.543 127.233 344.304 126.565C344.066 125.895 343.946 125.085 343.946 124.136C343.946 123.193 344.066 122.388 344.304 121.72C344.546 121.05 344.892 120.538 345.344 120.186C345.799 119.831 346.344 119.653 346.98 119.653C347.617 119.653 348.161 119.831 348.613 120.186C349.067 120.538 349.414 121.05 349.652 121.72C349.894 122.388 350.015 123.193 350.015 124.136C350.015 125.085 349.895 125.895 349.657 126.565C349.418 127.233 349.073 127.743 348.621 128.095C348.169 128.445 347.623 128.619 346.98 128.619ZM346.98 127.682C347.617 127.682 348.111 127.375 348.463 126.761C348.816 126.148 348.992 125.273 348.992 124.136C348.992 123.381 348.911 122.737 348.749 122.206C348.59 121.675 348.36 121.27 348.059 120.991C347.76 120.713 347.401 120.574 346.98 120.574C346.35 120.574 345.857 120.885 345.502 121.507C345.147 122.126 344.969 123.003 344.969 124.136C344.969 124.892 345.049 125.534 345.208 126.062C345.367 126.591 345.596 126.993 345.894 127.268C346.195 127.544 346.557 127.682 346.98 127.682ZM351.634 128.5V127.733L354.515 124.58C354.853 124.21 355.131 123.889 355.35 123.616C355.569 123.341 355.73 123.082 355.836 122.841C355.944 122.597 355.998 122.341 355.998 122.074C355.998 121.767 355.924 121.501 355.776 121.277C355.631 121.053 355.432 120.879 355.179 120.757C354.926 120.635 354.642 120.574 354.327 120.574C353.992 120.574 353.699 120.643 353.449 120.783C353.202 120.919 353.01 121.111 352.874 121.358C352.74 121.605 352.674 121.895 352.674 122.227H351.668C351.668 121.716 351.786 121.267 352.022 120.881C352.257 120.494 352.578 120.193 352.985 119.977C353.394 119.761 353.853 119.653 354.361 119.653C354.873 119.653 355.326 119.761 355.721 119.977C356.115 120.193 356.425 120.484 356.65 120.851C356.874 121.217 356.986 121.625 356.986 122.074C356.986 122.395 356.928 122.709 356.811 123.016C356.698 123.32 356.499 123.659 356.215 124.034C355.934 124.406 355.543 124.861 355.043 125.398L353.083 127.494V127.562H357.14V128.5H351.634ZM361.627 128.619C361.127 128.619 360.676 128.52 360.276 128.321C359.875 128.122 359.554 127.849 359.313 127.503C359.071 127.156 358.939 126.761 358.917 126.318H359.939C359.979 126.713 360.158 127.04 360.476 127.298C360.797 127.554 361.181 127.682 361.627 127.682C361.985 127.682 362.303 127.598 362.581 127.43C362.863 127.263 363.083 127.033 363.242 126.74C363.404 126.445 363.485 126.111 363.485 125.739C363.485 125.358 363.401 125.018 363.233 124.72C363.069 124.419 362.841 124.182 362.551 124.009C362.262 123.835 361.931 123.747 361.559 123.744C361.292 123.741 361.017 123.783 360.736 123.868C360.455 123.95 360.223 124.057 360.042 124.188L359.053 124.068L359.581 119.773H364.115V120.71H360.468L360.161 123.284H360.212C360.391 123.142 360.615 123.024 360.885 122.93C361.155 122.837 361.436 122.79 361.729 122.79C362.263 122.79 362.739 122.918 363.157 123.173C363.577 123.426 363.907 123.773 364.145 124.213C364.387 124.653 364.507 125.156 364.507 125.722C364.507 126.278 364.382 126.776 364.132 127.213C363.885 127.648 363.544 127.991 363.11 128.244C362.675 128.494 362.181 128.619 361.627 128.619Z" fill="white"/>
<path d="M386 114V118" stroke="white" stroke-width="1.5" stroke-linecap="round" stroke-linejoin="round"/>
<path d="M394 114V118" stroke="white" stroke-width="1.5" stroke-linecap="round" stroke-linejoin="round"/>
<path d="M397 116H383C381.895 116 381 116.895 381 118V132C381 133.105 381.895 134 383 134H397C398.105 134 399 133.105 399 132V118C399 116.895 398.105 116 397 116Z" stroke="white" stroke-width="1.5" stroke-linecap="round" stroke-linejoin="round"/>
<path d="M381 122H399" stroke="white" stroke-width="1.5" stroke-linecap="round" stroke-linejoin="round"/>
<rect x="12" y="164" width="20" height="20" rx="8" fill="white"/>
<path d="M40.5795 170.71V169.773H47.125V170.71H44.3807V178.5H43.3239V170.71H40.5795ZM47.94 178.5V171.955H48.9116V172.943H48.9798C49.0991 172.619 49.315 172.357 49.6275 172.155C49.94 171.953 50.2923 171.852 50.6843 171.852C50.7582 171.852 50.8505 171.854 50.9613 171.857C51.0721 171.859 51.1559 171.864 51.2127 171.869V172.892C51.1786 172.884 51.1005 172.871 50.9783 172.854C50.859 172.834 50.7326 172.824 50.5991 172.824C50.2809 172.824 49.9968 172.891 49.7468 173.024C49.4996 173.155 49.3036 173.337 49.1587 173.57C49.0167 173.8 48.9457 174.062 48.9457 174.358V178.5H47.94ZM54.8647 178.636C54.2738 178.636 53.7553 178.496 53.3093 178.214C52.8661 177.933 52.5195 177.54 52.2695 177.034C52.0224 176.528 51.8988 175.937 51.8988 175.261C51.8988 174.58 52.0224 173.984 52.2695 173.476C52.5195 172.967 52.8661 172.572 53.3093 172.291C53.7553 172.01 54.2738 171.869 54.8647 171.869C55.4556 171.869 55.9727 172.01 56.4158 172.291C56.8619 172.572 57.2085 172.967 57.4556 173.476C57.7056 173.984 57.8306 174.58 57.8306 175.261C57.8306 175.937 57.7056 176.528 57.4556 177.034C57.2085 177.54 56.8619 177.933 56.4158 178.214C55.9727 178.496 55.4556 178.636 54.8647 178.636ZM54.8647 177.733C55.3136 177.733 55.6829 177.618 55.9727 177.388C56.2624 177.158 56.4769 176.855 56.6161 176.48C56.7553 176.105 56.8249 175.699 56.8249 175.261C56.8249 174.824 56.7553 174.416 56.6161 174.038C56.4769 173.661 56.2624 173.355 55.9727 173.122C55.6829 172.889 55.3136 172.773 54.8647 172.773C54.4158 172.773 54.0465 172.889 53.7567 173.122C53.467 173.355 53.2525 173.661 53.1133 174.038C52.9741 174.416 52.9045 174.824 52.9045 175.261C52.9045 175.699 52.9741 176.105 53.1133 176.48C53.2525 176.855 53.467 177.158 53.7567 177.388C54.0465 177.618 54.4158 177.733 54.8647 177.733ZM52.6658 171.136L54.4045 169.585H55.342L57.0806 171.136H55.8533L54.8817 170.233L53.9102 171.136H52.6658ZM56.6204 170.097L57.4556 168.562H58.6999L57.5067 170.097H56.6204ZM60.3714 174.562V178.5H59.3658V171.955H60.3374V172.977H60.4226C60.576 172.645 60.8089 172.378 61.1214 172.176C61.4339 171.972 61.8374 171.869 62.3317 171.869C62.7749 171.869 63.1626 171.96 63.495 172.142C63.8274 172.321 64.0859 172.594 64.2706 172.96C64.4553 173.324 64.5476 173.784 64.5476 174.341V178.5H63.5419V174.409C63.5419 173.895 63.4084 173.494 63.1413 173.207C62.8743 172.918 62.5078 172.773 62.0419 172.773C61.7209 172.773 61.4339 172.842 61.1811 172.982C60.9311 173.121 60.7337 173.324 60.5888 173.591C60.4439 173.858 60.3714 174.182 60.3714 174.562ZM69.0273 181.091C68.5415 181.091 68.1239 181.028 67.7745 180.903C67.4251 180.781 67.1339 180.619 66.9009 180.418C66.6708 180.219 66.4876 180.006 66.3512 179.778L67.1523 179.216C67.2433 179.335 67.3583 179.472 67.4975 179.625C67.6367 179.781 67.8271 179.916 68.0685 180.03C68.3129 180.146 68.6325 180.205 69.0273 180.205C69.5558 180.205 69.9918 180.077 70.3356 179.821C70.6793 179.565 70.8512 179.165 70.8512 178.619V177.29H70.766C70.6921 177.409 70.587 177.557 70.4506 177.733C70.3171 177.906 70.1239 178.061 69.8711 178.197C69.6211 178.331 69.283 178.398 68.8569 178.398C68.3285 178.398 67.854 178.273 67.4336 178.023C67.016 177.773 66.685 177.409 66.4407 176.932C66.1992 176.455 66.0785 175.875 66.0785 175.193C66.0785 174.523 66.1964 173.939 66.4322 173.442C66.668 172.942 66.9961 172.555 67.4165 172.283C67.837 172.007 68.3228 171.869 68.8739 171.869C69.3001 171.869 69.6381 171.94 69.8881 172.082C70.141 172.222 70.3342 172.381 70.4677 172.56C70.604 172.736 70.7092 172.881 70.783 172.994H70.8853V171.955H71.8569V178.688C71.8569 179.25 71.729 179.707 71.4734 180.06C71.2205 180.415 70.8796 180.675 70.4506 180.839C70.0245 181.007 69.5501 181.091 69.0273 181.091ZM68.9933 177.494C69.3967 177.494 69.7376 177.402 70.016 177.217C70.2944 177.033 70.506 176.767 70.6509 176.42C70.7958 176.074 70.8683 175.659 70.8683 175.176C70.8683 174.705 70.7972 174.288 70.6552 173.928C70.5131 173.567 70.3029 173.284 70.0245 173.08C69.7461 172.875 69.4023 172.773 68.9933 172.773C68.5671 172.773 68.212 172.881 67.9279 173.097C67.6467 173.312 67.435 173.602 67.293 173.966C67.1538 174.33 67.0842 174.733 67.0842 175.176C67.0842 175.631 67.1552 176.033 67.2972 176.382C67.4421 176.729 67.6552 177.001 67.9364 177.2C68.2205 177.396 68.5728 177.494 68.9933 177.494Z" fill="white"/>
<rect x="89" y="164" width="20" height="20" rx="8" fill="#B70003"/>
<path d="M120.75 178.5H118.653V177.562H120.682C121.403 177.562 122.001 177.423 122.476 177.145C122.95 176.866 123.304 176.47 123.537 175.956C123.77 175.442 123.886 174.83 123.886 174.119C123.886 173.415 123.771 172.808 123.541 172.3C123.311 171.788 122.967 171.396 122.51 171.124C122.053 170.848 121.483 170.71 120.801 170.71H118.602V169.773H120.869C121.716 169.773 122.44 169.947 123.043 170.297C123.645 170.643 124.107 171.142 124.428 171.793C124.749 172.44 124.909 173.216 124.909 174.119C124.909 175.028 124.747 175.811 124.423 176.467C124.099 177.121 123.628 177.624 123.009 177.976C122.389 178.325 121.636 178.5 120.75 178.5ZM119.114 169.773V178.5H118.057V169.773H119.114ZM116.71 174.392V173.608H120.46V174.392H116.71ZM128.472 178.653C128.057 178.653 127.68 178.575 127.342 178.419C127.004 178.26 126.736 178.031 126.537 177.733C126.338 177.432 126.239 177.068 126.239 176.642C126.239 176.267 126.313 175.963 126.46 175.73C126.608 175.494 126.805 175.31 127.053 175.176C127.3 175.043 127.572 174.943 127.871 174.878C128.172 174.81 128.474 174.756 128.778 174.716C129.176 174.665 129.499 174.626 129.746 174.601C129.996 174.572 130.178 174.526 130.291 174.46C130.408 174.395 130.466 174.281 130.466 174.119V174.085C130.466 173.665 130.351 173.338 130.121 173.105C129.893 172.872 129.548 172.756 129.085 172.756C128.605 172.756 128.229 172.861 127.956 173.071C127.683 173.281 127.491 173.506 127.381 173.744L126.426 173.403C126.597 173.006 126.824 172.696 127.108 172.474C127.395 172.25 127.707 172.094 128.045 172.006C128.386 171.915 128.722 171.869 129.051 171.869C129.261 171.869 129.503 171.895 129.776 171.946C130.051 171.994 130.317 172.095 130.572 172.249C130.831 172.402 131.045 172.634 131.216 172.943C131.386 173.253 131.472 173.668 131.472 174.188V178.5H130.466V177.614H130.415C130.347 177.756 130.233 177.908 130.074 178.07C129.915 178.232 129.703 178.369 129.439 178.483C129.175 178.597 128.852 178.653 128.472 178.653ZM128.625 177.75C129.023 177.75 129.358 177.672 129.631 177.516C129.906 177.359 130.114 177.158 130.253 176.911C130.395 176.663 130.466 176.403 130.466 176.131V175.21C130.423 175.261 130.33 175.308 130.185 175.351C130.043 175.391 129.878 175.426 129.69 175.457C129.506 175.486 129.325 175.511 129.149 175.534C128.976 175.554 128.835 175.571 128.727 175.585C128.466 175.619 128.222 175.675 127.994 175.751C127.77 175.825 127.588 175.937 127.449 176.088C127.313 176.236 127.244 176.437 127.244 176.693C127.244 177.043 127.374 177.307 127.632 177.486C127.893 177.662 128.224 177.75 128.625 177.75ZM127.807 171.17L127.023 171.136C127.023 170.702 127.146 170.347 127.393 170.071C127.643 169.793 127.952 169.653 128.318 169.653C128.48 169.653 128.624 169.682 128.749 169.739C128.874 169.793 128.993 169.855 129.107 169.926C129.22 169.997 129.337 170.061 129.456 170.118C129.578 170.172 129.716 170.199 129.869 170.199C130.031 170.199 130.168 170.136 130.278 170.011C130.392 169.884 130.449 169.73 130.449 169.551L131.216 169.619C131.216 170.062 131.091 170.415 130.841 170.676C130.594 170.937 130.287 171.068 129.92 171.068C129.724 171.068 129.563 171.041 129.435 170.987C129.307 170.93 129.193 170.866 129.094 170.795C128.994 170.724 128.889 170.662 128.778 170.608C128.668 170.551 128.531 170.523 128.369 170.523C128.207 170.523 128.072 170.587 127.964 170.714C127.859 170.839 127.807 170.991 127.807 171.17ZM139.154 178.636C138.608 178.636 138.127 178.499 137.709 178.223C137.292 177.945 136.965 177.553 136.729 177.047C136.493 176.538 136.375 175.938 136.375 175.244C136.375 174.557 136.493 173.96 136.729 173.455C136.965 172.949 137.293 172.558 137.713 172.283C138.134 172.007 138.62 171.869 139.171 171.869C139.597 171.869 139.934 171.94 140.181 172.082C140.431 172.222 140.621 172.381 140.752 172.56C140.885 172.736 140.989 172.881 141.063 172.994H141.148V169.773H142.154V178.5H141.182V177.494H141.063C140.989 177.614 140.884 177.764 140.748 177.946C140.611 178.125 140.417 178.286 140.164 178.428C139.911 178.567 139.574 178.636 139.154 178.636ZM139.29 177.733C139.694 177.733 140.034 177.628 140.313 177.418C140.591 177.205 140.803 176.911 140.948 176.536C141.093 176.158 141.165 175.722 141.165 175.227C141.165 174.739 141.094 174.311 140.952 173.945C140.81 173.575 140.6 173.288 140.321 173.084C140.043 172.876 139.699 172.773 139.29 172.773C138.864 172.773 138.509 172.882 138.225 173.101C137.944 173.317 137.732 173.611 137.59 173.983C137.451 174.352 137.381 174.767 137.381 175.227C137.381 175.693 137.452 176.116 137.594 176.497C137.739 176.875 137.952 177.176 138.233 177.401C138.517 177.622 138.87 177.733 139.29 177.733ZM139.341 171.392V170.608H143.091V171.392H139.341ZM146.061 178.653C145.647 178.653 145.27 178.575 144.932 178.419C144.594 178.26 144.326 178.031 144.127 177.733C143.928 177.432 143.828 177.068 143.828 176.642C143.828 176.267 143.902 175.963 144.05 175.73C144.198 175.494 144.395 175.31 144.642 175.176C144.89 175.043 145.162 174.943 145.461 174.878C145.762 174.81 146.064 174.756 146.368 174.716C146.766 174.665 147.088 174.626 147.336 174.601C147.586 174.572 147.767 174.526 147.881 174.46C147.998 174.395 148.056 174.281 148.056 174.119V174.085C148.056 173.665 147.941 173.338 147.711 173.105C147.483 172.872 147.138 172.756 146.675 172.756C146.195 172.756 145.819 172.861 145.546 173.071C145.273 173.281 145.081 173.506 144.971 173.744L144.016 173.403C144.186 173.006 144.414 172.696 144.698 172.474C144.985 172.25 145.297 172.094 145.635 172.006C145.976 171.915 146.311 171.869 146.641 171.869C146.851 171.869 147.093 171.895 147.365 171.946C147.641 171.994 147.907 172.095 148.162 172.249C148.421 172.402 148.635 172.634 148.806 172.943C148.976 173.253 149.061 173.668 149.061 174.188V178.5H148.056V177.614H148.005C147.936 177.756 147.823 177.908 147.664 178.07C147.505 178.232 147.293 178.369 147.029 178.483C146.765 178.597 146.442 178.653 146.061 178.653ZM146.215 177.75C146.613 177.75 146.948 177.672 147.221 177.516C147.496 177.359 147.703 177.158 147.843 176.911C147.985 176.663 148.056 176.403 148.056 176.131V175.21C148.013 175.261 147.919 175.308 147.775 175.351C147.632 175.391 147.468 175.426 147.28 175.457C147.096 175.486 146.915 175.511 146.739 175.534C146.566 175.554 146.425 175.571 146.317 175.585C146.056 175.619 145.811 175.675 145.584 175.751C145.36 175.825 145.178 175.937 145.039 176.088C144.902 176.236 144.834 176.437 144.834 176.693C144.834 177.043 144.963 177.307 145.222 177.486C145.483 177.662 145.814 177.75 146.215 177.75ZM147.544 169.773H148.482C148.482 170.233 148.323 170.609 148.005 170.902C147.686 171.195 147.255 171.341 146.709 171.341C146.172 171.341 145.745 171.195 145.426 170.902C145.111 170.609 144.953 170.233 144.953 169.773H145.891C145.891 169.994 145.952 170.189 146.074 170.357C146.199 170.524 146.411 170.608 146.709 170.608C147.007 170.608 147.221 170.524 147.348 170.357C147.479 170.189 147.544 169.994 147.544 169.773ZM146.658 180.665C146.462 180.665 146.293 180.598 146.151 180.464C146.012 180.331 145.942 180.17 145.942 179.983C145.942 179.795 146.012 179.635 146.151 179.501C146.293 179.368 146.462 179.301 146.658 179.301C146.854 179.301 147.022 179.368 147.161 179.501C147.303 179.635 147.374 179.795 147.374 179.983C147.374 180.17 147.303 180.331 147.161 180.464C147.022 180.598 146.854 180.665 146.658 180.665ZM153.744 171.955V172.807H150.352V171.955H153.744ZM151.34 170.386H152.346V176.625C152.346 176.909 152.387 177.122 152.469 177.264C152.555 177.403 152.663 177.497 152.793 177.545C152.927 177.591 153.067 177.614 153.215 177.614C153.326 177.614 153.417 177.608 153.488 177.597C153.559 177.582 153.616 177.571 153.658 177.562L153.863 178.466C153.795 178.491 153.7 178.517 153.577 178.543C153.455 178.571 153.3 178.585 153.113 178.585C152.829 178.585 152.55 178.524 152.278 178.402C152.008 178.28 151.783 178.094 151.604 177.844C151.428 177.594 151.34 177.278 151.34 176.898V170.386Z" fill="white"/>
<rect x="171" y="164" width="20" height="20" rx="8" fill="#949494"/>
<path d="M200.057 178.5V169.773H201.114V174.102H201.216L205.136 169.773H206.517L202.852 173.71L206.517 178.5H205.239L202.205 174.443L201.114 175.67V178.5H200.057ZM208.754 174.562V178.5H207.749V169.773H208.754V172.977H208.839C208.993 172.639 209.223 172.371 209.53 172.172C209.839 171.97 210.251 171.869 210.766 171.869C211.212 171.869 211.602 171.959 211.938 172.138C212.273 172.314 212.533 172.585 212.717 172.952C212.905 173.315 212.999 173.778 212.999 174.341V178.5H211.993V174.409C211.993 173.889 211.858 173.487 211.588 173.203C211.321 172.916 210.95 172.773 210.476 172.773C210.146 172.773 209.851 172.842 209.589 172.982C209.331 173.121 209.126 173.324 208.976 173.591C208.828 173.858 208.754 174.182 208.754 174.562ZM217.498 178.636C216.907 178.636 216.388 178.496 215.942 178.214C215.499 177.933 215.152 177.54 214.902 177.034C214.655 176.528 214.532 175.937 214.532 175.261C214.532 174.58 214.655 173.984 214.902 173.476C215.152 172.967 215.499 172.572 215.942 172.291C216.388 172.01 216.907 171.869 217.498 171.869C218.088 171.869 218.605 172.01 219.049 172.291C219.495 172.572 219.841 172.967 220.088 173.476C220.338 173.984 220.463 174.58 220.463 175.261C220.463 175.937 220.338 176.528 220.088 177.034C219.841 177.54 219.495 177.933 219.049 178.214C218.605 178.496 218.088 178.636 217.498 178.636ZM217.498 177.733C217.946 177.733 218.316 177.618 218.605 177.388C218.895 177.158 219.11 176.855 219.249 176.48C219.388 176.105 219.458 175.699 219.458 175.261C219.458 174.824 219.388 174.416 219.249 174.038C219.11 173.661 218.895 173.355 218.605 173.122C218.316 172.889 217.946 172.773 217.498 172.773C217.049 172.773 216.679 172.889 216.39 173.122C216.1 173.355 215.885 173.661 215.746 174.038C215.607 174.416 215.537 174.824 215.537 175.261C215.537 175.699 215.607 176.105 215.746 176.48C215.885 176.855 216.1 177.158 216.39 177.388C216.679 177.618 217.049 177.733 217.498 177.733ZM217.037 171.068L218.077 169.091H219.253L217.924 171.068H217.037ZM223.925 178.653C223.51 178.653 223.134 178.575 222.795 178.419C222.457 178.26 222.189 178.031 221.99 177.733C221.791 177.432 221.692 177.068 221.692 176.642C221.692 176.267 221.766 175.963 221.913 175.73C222.061 175.494 222.259 175.31 222.506 175.176C222.753 175.043 223.026 174.943 223.324 174.878C223.625 174.81 223.928 174.756 224.232 174.716C224.629 174.665 224.952 174.626 225.199 174.601C225.449 174.572 225.631 174.526 225.744 174.46C225.861 174.395 225.919 174.281 225.919 174.119V174.085C225.919 173.665 225.804 173.338 225.574 173.105C225.347 172.872 225.001 172.756 224.538 172.756C224.058 172.756 223.682 172.861 223.409 173.071C223.136 173.281 222.945 173.506 222.834 173.744L221.879 173.403C222.05 173.006 222.277 172.696 222.561 172.474C222.848 172.25 223.161 172.094 223.499 172.006C223.839 171.915 224.175 171.869 224.504 171.869C224.714 171.869 224.956 171.895 225.229 171.946C225.504 171.994 225.77 172.095 226.026 172.249C226.284 172.402 226.499 172.634 226.669 172.943C226.839 173.253 226.925 173.668 226.925 174.188V178.5H225.919V177.614H225.868C225.8 177.756 225.686 177.908 225.527 178.07C225.368 178.232 225.156 178.369 224.892 178.483C224.628 178.597 224.305 178.653 223.925 178.653ZM224.078 177.75C224.476 177.75 224.811 177.672 225.084 177.516C225.359 177.359 225.567 177.158 225.706 176.911C225.848 176.663 225.919 176.403 225.919 176.131V175.21C225.876 175.261 225.783 175.308 225.638 175.351C225.496 175.391 225.331 175.426 225.143 175.457C224.959 175.486 224.778 175.511 224.602 175.534C224.429 175.554 224.288 175.571 224.18 175.585C223.919 175.619 223.675 175.675 223.447 175.751C223.223 175.825 223.041 175.937 222.902 176.088C222.766 176.236 222.697 176.437 222.697 176.693C222.697 177.043 222.827 177.307 223.085 177.486C223.347 177.662 223.678 177.75 224.078 177.75Z" fill="white"/>
<rect x="244" y="164" width="20" height="20" rx="8" fill="#B700C7"/>
<path d="M277.83 171.955C277.778 171.523 277.571 171.188 277.207 170.949C276.844 170.71 276.398 170.591 275.869 170.591C275.483 170.591 275.145 170.653 274.855 170.778C274.568 170.903 274.344 171.075 274.182 171.294C274.023 171.513 273.943 171.761 273.943 172.04C273.943 172.273 273.999 172.473 274.109 172.641C274.223 172.805 274.368 172.943 274.544 173.054C274.72 173.162 274.905 173.251 275.098 173.322C275.291 173.391 275.469 173.446 275.631 173.489L276.517 173.727C276.744 173.787 276.997 173.869 277.276 173.974C277.557 174.08 277.825 174.223 278.081 174.405C278.339 174.584 278.553 174.814 278.72 175.095C278.888 175.376 278.972 175.722 278.972 176.131C278.972 176.602 278.848 177.028 278.601 177.409C278.357 177.79 277.999 178.092 277.527 178.317C277.058 178.541 276.489 178.653 275.818 178.653C275.193 178.653 274.652 178.553 274.195 178.351C273.74 178.149 273.382 177.868 273.121 177.507C272.862 177.146 272.716 176.727 272.682 176.25H273.773C273.801 176.58 273.912 176.852 274.105 177.068C274.301 177.281 274.548 177.44 274.847 177.545C275.148 177.648 275.472 177.699 275.818 177.699C276.222 177.699 276.584 177.634 276.905 177.503C277.226 177.369 277.48 177.185 277.668 176.949C277.855 176.71 277.949 176.432 277.949 176.114C277.949 175.824 277.868 175.588 277.706 175.406C277.544 175.224 277.331 175.077 277.067 174.963C276.803 174.849 276.517 174.75 276.21 174.665L275.136 174.358C274.455 174.162 273.915 173.882 273.517 173.518C273.119 173.155 272.92 172.679 272.92 172.091C272.92 171.602 273.053 171.176 273.317 170.812C273.584 170.446 273.942 170.162 274.391 169.96C274.842 169.756 275.347 169.653 275.903 169.653C276.466 169.653 276.966 169.754 277.403 169.956C277.841 170.155 278.188 170.428 278.443 170.774C278.702 171.121 278.838 171.514 278.852 171.955H277.83ZM286.471 171.665H287.357C287.357 172.097 287.3 172.459 287.186 172.751C287.073 173.041 286.874 173.26 286.59 173.408C286.306 173.553 285.908 173.625 285.397 173.625V172.926C285.749 172.926 285.999 172.884 286.147 172.798C286.297 172.71 286.388 172.574 286.419 172.389C286.453 172.202 286.471 171.96 286.471 171.665ZM284.698 175.824V171.955H285.703V178.5H284.698V177.392H284.63C284.476 177.724 284.238 178.007 283.914 178.24C283.59 178.47 283.181 178.585 282.686 178.585C282.277 178.585 281.914 178.496 281.596 178.317C281.277 178.135 281.027 177.862 280.846 177.499C280.664 177.132 280.573 176.67 280.573 176.114V171.955H281.578V176.045C281.578 176.523 281.712 176.903 281.979 177.188C282.249 177.472 282.593 177.614 283.01 177.614C283.26 177.614 283.515 177.55 283.773 177.422C284.034 177.294 284.253 177.098 284.429 176.834C284.608 176.57 284.698 176.233 284.698 175.824ZM283.147 180.665C282.951 180.665 282.782 180.598 282.64 180.464C282.5 180.331 282.431 180.17 282.431 179.983C282.431 179.795 282.5 179.635 282.64 179.501C282.782 179.368 282.951 179.301 283.147 179.301C283.343 179.301 283.51 179.368 283.65 179.501C283.792 179.635 283.863 179.795 283.863 179.983C283.863 180.17 283.792 180.331 283.65 180.464C283.51 180.598 283.343 180.665 283.147 180.665ZM292.35 176.114L292.333 174.869H292.538L295.401 171.955H296.646L293.594 175.04H293.509L292.35 176.114ZM291.413 178.5V169.773H292.418V178.5H291.413ZM295.572 178.5L293.015 175.261L293.731 174.562L296.85 178.5H295.572ZM297.94 178.5V171.955H298.946V178.5H297.94ZM298.451 170.864C298.255 170.864 298.086 170.797 297.944 170.663C297.805 170.53 297.735 170.369 297.735 170.182C297.735 169.994 297.805 169.834 297.944 169.7C298.086 169.567 298.255 169.5 298.451 169.5C298.647 169.5 298.815 169.567 298.954 169.7C299.096 169.834 299.167 169.994 299.167 170.182C299.167 170.369 299.096 170.53 298.954 170.663C298.815 170.797 298.647 170.864 298.451 170.864ZM303.532 178.636C302.901 178.636 302.357 178.497 301.9 178.219C301.445 177.938 301.094 177.545 300.847 177.043C300.603 176.537 300.481 175.949 300.481 175.278C300.481 174.608 300.603 174.017 300.847 173.506C301.094 172.991 301.438 172.591 301.879 172.304C302.322 172.014 302.839 171.869 303.43 171.869C303.771 171.869 304.107 171.926 304.44 172.04C304.772 172.153 305.075 172.338 305.347 172.594C305.62 172.847 305.837 173.182 305.999 173.599C306.161 174.017 306.242 174.531 306.242 175.142V175.568H301.197V174.699H305.219C305.219 174.33 305.146 174 304.998 173.71C304.853 173.42 304.646 173.192 304.376 173.024C304.109 172.857 303.793 172.773 303.43 172.773C303.029 172.773 302.683 172.872 302.39 173.071C302.1 173.267 301.877 173.523 301.721 173.838C301.565 174.153 301.487 174.491 301.487 174.852V175.432C301.487 175.926 301.572 176.345 301.742 176.689C301.915 177.03 302.156 177.29 302.462 177.469C302.769 177.645 303.126 177.733 303.532 177.733C303.796 177.733 304.035 177.696 304.248 177.622C304.464 177.545 304.65 177.432 304.806 177.281C304.962 177.128 305.083 176.937 305.168 176.71L306.14 176.983C306.038 177.312 305.866 177.602 305.624 177.852C305.383 178.099 305.085 178.293 304.729 178.432C304.374 178.568 303.975 178.636 303.532 178.636ZM304.265 171.17L303.379 169.977L302.492 171.17H301.538V171.102L302.918 169.33H303.839L305.219 171.102V171.17H304.265ZM303.379 180.665C303.183 180.665 303.013 180.598 302.871 180.464C302.732 180.331 302.663 180.17 302.663 179.983C302.663 179.795 302.732 179.635 302.871 179.501C303.013 179.368 303.183 179.301 303.379 179.301C303.575 179.301 303.742 179.368 303.881 179.501C304.023 179.635 304.094 179.795 304.094 179.983C304.094 180.17 304.023 180.331 303.881 180.464C303.742 180.598 303.575 180.665 303.379 180.665ZM308.778 174.562V178.5H307.772V171.955H308.744V172.977H308.829C308.982 172.645 309.215 172.378 309.528 172.176C309.84 171.972 310.244 171.869 310.738 171.869C311.181 171.869 311.569 171.96 311.901 172.142C312.234 172.321 312.492 172.594 312.677 172.96C312.862 173.324 312.954 173.784 312.954 174.341V178.5H311.948V174.409C311.948 173.895 311.815 173.494 311.548 173.207C311.281 172.918 310.914 172.773 310.448 172.773C310.127 172.773 309.84 172.842 309.587 172.982C309.337 173.121 309.14 173.324 308.995 173.591C308.85 173.858 308.778 174.182 308.778 174.562Z" fill="white"/>
<rect width="430" height="23" transform="translate(0 197)" fill="#C5FFFF"/>
<path d="M69.8011 213.119C69.4432 213.114 69.0852 213.045 68.7273 212.915C68.3693 212.784 68.0426 212.564 67.7472 212.254C67.4517 211.942 67.2145 211.52 67.0355 210.989C66.8565 210.455 66.767 209.784 66.767 208.977C66.767 208.205 66.8395 207.52 66.9844 206.923C67.1293 206.324 67.3395 205.82 67.6151 205.411C67.8906 204.999 68.223 204.686 68.6122 204.473C69.0043 204.26 69.446 204.153 69.9375 204.153C70.4261 204.153 70.8608 204.251 71.2415 204.447C71.625 204.641 71.9375 204.911 72.179 205.257C72.4205 205.604 72.5767 206.003 72.6477 206.455H71.608C71.5114 206.062 71.3239 205.737 71.0455 205.479C70.767 205.22 70.3977 205.091 69.9375 205.091C69.2614 205.091 68.7287 205.385 68.3395 205.973C67.9531 206.561 67.7585 207.386 67.7557 208.449H67.8239C67.983 208.207 68.1719 208.001 68.3906 207.831C68.6122 207.658 68.8565 207.524 69.1236 207.43C69.3906 207.337 69.6733 207.29 69.9716 207.29C70.4716 207.29 70.929 207.415 71.3438 207.665C71.7585 207.912 72.0909 208.254 72.3409 208.692C72.5909 209.126 72.7159 209.625 72.7159 210.188C72.7159 210.727 72.5952 211.222 72.3537 211.67C72.1122 212.116 71.7727 212.472 71.3352 212.736C70.9006 212.997 70.3892 213.125 69.8011 213.119ZM69.8011 212.182C70.1591 212.182 70.4801 212.092 70.7642 211.913C71.0511 211.734 71.277 211.494 71.4418 211.193C71.6094 210.892 71.6932 210.557 71.6932 210.188C71.6932 209.827 71.6122 209.499 71.4503 209.203C71.2912 208.905 71.071 208.668 70.7898 208.491C70.5114 208.315 70.1932 208.227 69.8352 208.227C69.5653 208.227 69.3139 208.281 69.081 208.389C68.848 208.494 68.6435 208.639 68.4673 208.824C68.294 209.009 68.1577 209.22 68.0582 209.459C67.9588 209.695 67.9091 209.943 67.9091 210.205C67.9091 210.551 67.9901 210.875 68.152 211.176C68.3168 211.477 68.5412 211.72 68.8253 211.905C69.1122 212.089 69.4375 212.182 69.8011 212.182ZM75.1417 211.884C74.9315 211.884 74.7511 211.808 74.6005 211.658C74.4499 211.507 74.3746 211.327 74.3746 211.116C74.3746 210.906 74.4499 210.726 74.6005 210.575C74.7511 210.425 74.9315 210.349 75.1417 210.349C75.3519 210.349 75.5323 210.425 75.6829 210.575C75.8335 210.726 75.9087 210.906 75.9087 211.116C75.9087 211.256 75.8732 211.384 75.8022 211.5C75.734 211.616 75.6417 211.71 75.5252 211.781C75.4116 211.849 75.2837 211.884 75.1417 211.884ZM75.1417 207.469C74.9315 207.469 74.7511 207.393 74.6005 207.243C74.4499 207.092 74.3746 206.912 74.3746 206.702C74.3746 206.491 74.4499 206.311 74.6005 206.161C74.7511 206.01 74.9315 205.935 75.1417 205.935C75.3519 205.935 75.5323 206.01 75.6829 206.161C75.8335 206.311 75.9087 206.491 75.9087 206.702C75.9087 206.841 75.8732 206.969 75.8022 207.085C75.734 207.202 75.6417 207.295 75.5252 207.366C75.4116 207.435 75.2837 207.469 75.1417 207.469ZM80.543 213.119C79.9009 213.119 79.354 212.945 78.9023 212.595C78.4506 212.243 78.1055 211.733 77.8668 211.065C77.6282 210.395 77.5089 209.585 77.5089 208.636C77.5089 207.693 77.6282 206.888 77.8668 206.22C78.1083 205.55 78.4549 205.038 78.9066 204.686C79.3612 204.331 79.9066 204.153 80.543 204.153C81.1793 204.153 81.7234 204.331 82.1751 204.686C82.6296 205.038 82.9762 205.55 83.2148 206.22C83.4563 206.888 83.5771 207.693 83.5771 208.636C83.5771 209.585 83.4577 210.395 83.2191 211.065C82.9805 211.733 82.6353 212.243 82.1836 212.595C81.7319 212.945 81.185 213.119 80.543 213.119ZM80.543 212.182C81.1793 212.182 81.6737 211.875 82.0259 211.261C82.3782 210.648 82.5543 209.773 82.5543 208.636C82.5543 207.881 82.4734 207.237 82.3114 206.706C82.1523 206.175 81.9222 205.77 81.6211 205.491C81.3228 205.213 80.9634 205.074 80.543 205.074C79.9123 205.074 79.4194 205.385 79.0643 206.007C78.7092 206.626 78.5316 207.503 78.5316 208.636C78.5316 209.392 78.6112 210.034 78.7702 210.562C78.9293 211.091 79.158 211.493 79.4563 211.768C79.7575 212.044 80.1197 212.182 80.543 212.182ZM88.043 213.119C87.4009 213.119 86.854 212.945 86.4023 212.595C85.9506 212.243 85.6055 211.733 85.3668 211.065C85.1282 210.395 85.0089 209.585 85.0089 208.636C85.0089 207.693 85.1282 206.888 85.3668 206.22C85.6083 205.55 85.9549 205.038 86.4066 204.686C86.8612 204.331 87.4066 204.153 88.043 204.153C88.6793 204.153 89.2234 204.331 89.6751 204.686C90.1296 205.038 90.4762 205.55 90.7148 206.22C90.9563 206.888 91.0771 207.693 91.0771 208.636C91.0771 209.585 90.9577 210.395 90.7191 211.065C90.4805 211.733 90.1353 212.243 89.6836 212.595C89.2319 212.945 88.685 213.119 88.043 213.119ZM88.043 212.182C88.6793 212.182 89.1737 211.875 89.5259 211.261C89.8782 210.648 90.0543 209.773 90.0543 208.636C90.0543 207.881 89.9734 207.237 89.8114 206.706C89.6523 206.175 89.4222 205.77 89.1211 205.491C88.8228 205.213 88.4634 205.074 88.043 205.074C87.4123 205.074 86.9194 205.385 86.5643 206.007C86.2092 206.626 86.0316 207.503 86.0316 208.636C86.0316 209.392 86.1112 210.034 86.2702 210.562C86.4293 211.091 86.658 211.493 86.9563 211.768C87.2575 212.044 87.6197 212.182 88.043 212.182Z" fill="black"/>
<path d="M161.134 213.119C160.776 213.114 160.418 213.045 160.061 212.915C159.703 212.784 159.376 212.564 159.08 212.254C158.785 211.942 158.548 211.52 158.369 210.989C158.19 210.455 158.1 209.784 158.1 208.977C158.1 208.205 158.173 207.52 158.318 206.923C158.463 206.324 158.673 205.82 158.948 205.411C159.224 204.999 159.556 204.686 159.945 204.473C160.338 204.26 160.779 204.153 161.271 204.153C161.759 204.153 162.194 204.251 162.575 204.447C162.958 204.641 163.271 204.911 163.512 205.257C163.754 205.604 163.91 206.003 163.981 206.455H162.941C162.845 206.062 162.657 205.737 162.379 205.479C162.1 205.22 161.731 205.091 161.271 205.091C160.595 205.091 160.062 205.385 159.673 205.973C159.286 206.561 159.092 207.386 159.089 208.449H159.157C159.316 208.207 159.505 208.001 159.724 207.831C159.945 207.658 160.19 207.524 160.457 207.43C160.724 207.337 161.007 207.29 161.305 207.29C161.805 207.29 162.262 207.415 162.677 207.665C163.092 207.912 163.424 208.254 163.674 208.692C163.924 209.126 164.049 209.625 164.049 210.188C164.049 210.727 163.928 211.222 163.687 211.67C163.445 212.116 163.106 212.472 162.668 212.736C162.234 212.997 161.722 213.125 161.134 213.119ZM161.134 212.182C161.492 212.182 161.813 212.092 162.097 211.913C162.384 211.734 162.61 211.494 162.775 211.193C162.943 210.892 163.026 210.557 163.026 210.188C163.026 209.827 162.945 209.499 162.784 209.203C162.624 208.905 162.404 208.668 162.123 208.491C161.845 208.315 161.526 208.227 161.168 208.227C160.899 208.227 160.647 208.281 160.414 208.389C160.181 208.494 159.977 208.639 159.801 208.824C159.627 209.009 159.491 209.22 159.391 209.459C159.292 209.695 159.242 209.943 159.242 210.205C159.242 210.551 159.323 210.875 159.485 211.176C159.65 211.477 159.874 211.72 160.159 211.905C160.445 212.089 160.771 212.182 161.134 212.182ZM166.475 211.884C166.265 211.884 166.084 211.808 165.934 211.658C165.783 211.507 165.708 211.327 165.708 211.116C165.708 210.906 165.783 210.726 165.934 210.575C166.084 210.425 166.265 210.349 166.475 210.349C166.685 210.349 166.866 210.425 167.016 210.575C167.167 210.726 167.242 210.906 167.242 211.116C167.242 211.256 167.206 211.384 167.135 211.5C167.067 211.616 166.975 211.71 166.858 211.781C166.745 211.849 166.617 211.884 166.475 211.884ZM166.475 207.469C166.265 207.469 166.084 207.393 165.934 207.243C165.783 207.092 165.708 206.912 165.708 206.702C165.708 206.491 165.783 206.311 165.934 206.161C166.084 206.01 166.265 205.935 166.475 205.935C166.685 205.935 166.866 206.01 167.016 206.161C167.167 206.311 167.242 206.491 167.242 206.702C167.242 206.841 167.206 206.969 167.135 207.085C167.067 207.202 166.975 207.295 166.858 207.366C166.745 207.435 166.617 207.469 166.475 207.469ZM171.978 213.119C171.416 213.119 170.915 213.023 170.474 212.83C170.037 212.636 169.689 212.368 169.43 212.024C169.175 211.678 169.035 211.276 169.013 210.818H170.086C170.109 211.099 170.206 211.342 170.376 211.547C170.547 211.749 170.77 211.905 171.045 212.016C171.321 212.126 171.626 212.182 171.961 212.182C172.336 212.182 172.669 212.116 172.959 211.986C173.248 211.855 173.476 211.673 173.64 211.44C173.805 211.207 173.888 210.938 173.888 210.631C173.888 210.31 173.808 210.027 173.649 209.783C173.49 209.536 173.257 209.342 172.95 209.203C172.643 209.064 172.268 208.994 171.825 208.994H171.126V208.057H171.825C172.172 208.057 172.476 207.994 172.737 207.869C173.001 207.744 173.207 207.568 173.355 207.341C173.505 207.114 173.581 206.847 173.581 206.54C173.581 206.244 173.515 205.987 173.385 205.768C173.254 205.55 173.069 205.379 172.831 205.257C172.595 205.135 172.317 205.074 171.996 205.074C171.694 205.074 171.41 205.129 171.143 205.24C170.879 205.348 170.663 205.506 170.496 205.713C170.328 205.918 170.237 206.165 170.223 206.455H169.2C169.217 205.997 169.355 205.597 169.613 205.253C169.872 204.906 170.21 204.636 170.628 204.443C171.048 204.25 171.51 204.153 172.013 204.153C172.552 204.153 173.015 204.263 173.402 204.482C173.788 204.697 174.085 204.983 174.292 205.338C174.5 205.693 174.603 206.077 174.603 206.489C174.603 206.98 174.474 207.399 174.216 207.746C173.96 208.092 173.612 208.332 173.172 208.466V208.534C173.723 208.625 174.153 208.859 174.463 209.237C174.773 209.612 174.927 210.077 174.927 210.631C174.927 211.105 174.798 211.531 174.54 211.909C174.284 212.284 173.934 212.58 173.491 212.795C173.048 213.011 172.544 213.119 171.978 213.119ZM179.517 213.119C178.875 213.119 178.328 212.945 177.876 212.595C177.425 212.243 177.079 211.733 176.841 211.065C176.602 210.395 176.483 209.585 176.483 208.636C176.483 207.693 176.602 206.888 176.841 206.22C177.082 205.55 177.429 205.038 177.88 204.686C178.335 204.331 178.88 204.153 179.517 204.153C180.153 204.153 180.697 204.331 181.149 204.686C181.603 205.038 181.95 205.55 182.189 206.22C182.43 206.888 182.551 207.693 182.551 208.636C182.551 209.585 182.432 210.395 182.193 211.065C181.954 211.733 181.609 212.243 181.157 212.595C180.706 212.945 180.159 213.119 179.517 213.119ZM179.517 212.182C180.153 212.182 180.648 211.875 181 211.261C181.352 210.648 181.528 209.773 181.528 208.636C181.528 207.881 181.447 207.237 181.285 206.706C181.126 206.175 180.896 205.77 180.595 205.491C180.297 205.213 179.937 205.074 179.517 205.074C178.886 205.074 178.393 205.385 178.038 206.007C177.683 206.626 177.505 207.503 177.505 208.636C177.505 209.392 177.585 210.034 177.744 210.562C177.903 211.091 178.132 211.493 178.43 211.768C178.731 212.044 179.094 212.182 179.517 212.182Z" fill="black"/>
<path d="M249.843 213L253.746 205.278V205.21H249.246V204.273H254.837V205.261L250.951 213H249.843ZM256.765 211.884C256.555 211.884 256.375 211.808 256.224 211.658C256.074 211.507 255.998 211.327 255.998 211.116C255.998 210.906 256.074 210.726 256.224 210.575C256.375 210.425 256.555 210.349 256.765 210.349C256.976 210.349 257.156 210.425 257.307 210.575C257.457 210.726 257.533 210.906 257.533 211.116C257.533 211.256 257.497 211.384 257.426 211.5C257.358 211.616 257.265 211.71 257.149 211.781C257.035 211.849 256.908 211.884 256.765 211.884ZM256.765 207.469C256.555 207.469 256.375 207.393 256.224 207.243C256.074 207.092 255.998 206.912 255.998 206.702C255.998 206.491 256.074 206.311 256.224 206.161C256.375 206.01 256.555 205.935 256.765 205.935C256.976 205.935 257.156 206.01 257.307 206.161C257.457 206.311 257.533 206.491 257.533 206.702C257.533 206.841 257.497 206.969 257.426 207.085C257.358 207.202 257.265 207.295 257.149 207.366C257.035 207.435 256.908 207.469 256.765 207.469ZM262.167 213.119C261.525 213.119 260.978 212.945 260.526 212.595C260.074 212.243 259.729 211.733 259.491 211.065C259.252 210.395 259.133 209.585 259.133 208.636C259.133 207.693 259.252 206.888 259.491 206.22C259.732 205.55 260.079 205.038 260.53 204.686C260.985 204.331 261.53 204.153 262.167 204.153C262.803 204.153 263.347 204.331 263.799 204.686C264.253 205.038 264.6 205.55 264.839 206.22C265.08 206.888 265.201 207.693 265.201 208.636C265.201 209.585 265.082 210.395 264.843 211.065C264.604 211.733 264.259 212.243 263.807 212.595C263.356 212.945 262.809 213.119 262.167 213.119ZM262.167 212.182C262.803 212.182 263.297 211.875 263.65 211.261C264.002 210.648 264.178 209.773 264.178 208.636C264.178 207.881 264.097 207.237 263.935 206.706C263.776 206.175 263.546 205.77 263.245 205.491C262.947 205.213 262.587 205.074 262.167 205.074C261.536 205.074 261.043 205.385 260.688 206.007C260.333 206.626 260.155 207.503 260.155 208.636C260.155 209.392 260.235 210.034 260.394 210.562C260.553 211.091 260.782 211.493 261.08 211.768C261.381 212.044 261.743 212.182 262.167 212.182ZM269.667 213.119C269.025 213.119 268.478 212.945 268.026 212.595C267.574 212.243 267.229 211.733 266.991 211.065C266.752 210.395 266.633 209.585 266.633 208.636C266.633 207.693 266.752 206.888 266.991 206.22C267.232 205.55 267.579 205.038 268.03 204.686C268.485 204.331 269.03 204.153 269.667 204.153C270.303 204.153 270.847 204.331 271.299 204.686C271.753 205.038 272.1 205.55 272.339 206.22C272.58 206.888 272.701 207.693 272.701 208.636C272.701 209.585 272.582 210.395 272.343 211.065C272.104 211.733 271.759 212.243 271.307 212.595C270.856 212.945 270.309 213.119 269.667 213.119ZM269.667 212.182C270.303 212.182 270.797 211.875 271.15 211.261C271.502 210.648 271.678 209.773 271.678 208.636C271.678 207.881 271.597 207.237 271.435 206.706C271.276 206.175 271.046 205.77 270.745 205.491C270.447 205.213 270.087 205.074 269.667 205.074C269.036 205.074 268.543 205.385 268.188 206.007C267.833 206.626 267.655 207.503 267.655 208.636C267.655 209.392 267.735 210.034 267.894 210.562C268.053 211.091 268.282 211.493 268.58 211.768C268.881 212.044 269.243 212.182 269.667 212.182Z" fill="black"/>
<path d="M340.176 213L344.08 205.278V205.21H339.58V204.273H345.17V205.261L341.284 213H340.176ZM347.099 211.884C346.888 211.884 346.708 211.808 346.558 211.658C346.407 211.507 346.332 211.327 346.332 211.116C346.332 210.906 346.407 210.726 346.558 210.575C346.708 210.425 346.888 210.349 347.099 210.349C347.309 210.349 347.489 210.425 347.64 210.575C347.79 210.726 347.866 210.906 347.866 211.116C347.866 211.256 347.83 211.384 347.759 211.5C347.691 211.616 347.599 211.71 347.482 211.781C347.369 211.849 347.241 211.884 347.099 211.884ZM347.099 207.469C346.888 207.469 346.708 207.393 346.558 207.243C346.407 207.092 346.332 206.912 346.332 206.702C346.332 206.491 346.407 206.311 346.558 206.161C346.708 206.01 346.888 205.935 347.099 205.935C347.309 205.935 347.489 206.01 347.64 206.161C347.79 206.311 347.866 206.491 347.866 206.702C347.866 206.841 347.83 206.969 347.759 207.085C347.691 207.202 347.599 207.295 347.482 207.366C347.369 207.435 347.241 207.469 347.099 207.469ZM352.602 213.119C352.04 213.119 351.538 213.023 351.098 212.83C350.661 212.636 350.313 212.368 350.054 212.024C349.798 211.678 349.659 211.276 349.636 210.818H350.71C350.733 211.099 350.83 211.342 351 211.547C351.17 211.749 351.393 211.905 351.669 212.016C351.945 212.126 352.25 212.182 352.585 212.182C352.96 212.182 353.293 212.116 353.582 211.986C353.872 211.855 354.099 211.673 354.264 211.44C354.429 211.207 354.511 210.938 354.511 210.631C354.511 210.31 354.432 210.027 354.273 209.783C354.114 209.536 353.881 209.342 353.574 209.203C353.267 209.064 352.892 208.994 352.449 208.994H351.75V208.057H352.449C352.795 208.057 353.099 207.994 353.361 207.869C353.625 207.744 353.831 207.568 353.979 207.341C354.129 207.114 354.205 206.847 354.205 206.54C354.205 206.244 354.139 205.987 354.009 205.768C353.878 205.55 353.693 205.379 353.455 205.257C353.219 205.135 352.94 205.074 352.619 205.074C352.318 205.074 352.034 205.129 351.767 205.24C351.503 205.348 351.287 205.506 351.119 205.713C350.952 205.918 350.861 206.165 350.847 206.455H349.824C349.841 205.997 349.979 205.597 350.237 205.253C350.496 204.906 350.834 204.636 351.251 204.443C351.672 204.25 352.134 204.153 352.636 204.153C353.176 204.153 353.639 204.263 354.026 204.482C354.412 204.697 354.709 204.983 354.916 205.338C355.124 205.693 355.227 206.077 355.227 206.489C355.227 206.98 355.098 207.399 354.839 207.746C354.584 208.092 354.236 208.332 353.795 208.466V208.534C354.347 208.625 354.777 208.859 355.087 209.237C355.396 209.612 355.551 210.077 355.551 210.631C355.551 211.105 355.422 211.531 355.163 211.909C354.908 212.284 354.558 212.58 354.115 212.795C353.672 213.011 353.168 213.119 352.602 213.119ZM360.141 213.119C359.499 213.119 358.952 212.945 358.5 212.595C358.048 212.243 357.703 211.733 357.464 211.065C357.226 210.395 357.107 209.585 357.107 208.636C357.107 207.693 357.226 206.888 357.464 206.22C357.706 205.55 358.053 205.038 358.504 204.686C358.959 204.331 359.504 204.153 360.141 204.153C360.777 204.153 361.321 204.331 361.773 204.686C362.227 205.038 362.574 205.55 362.812 206.22C363.054 206.888 363.175 207.693 363.175 208.636C363.175 209.585 363.055 210.395 362.817 211.065C362.578 211.733 362.233 212.243 361.781 212.595C361.33 212.945 360.783 213.119 360.141 213.119ZM360.141 212.182C360.777 212.182 361.271 211.875 361.624 211.261C361.976 210.648 362.152 209.773 362.152 208.636C362.152 207.881 362.071 207.237 361.909 206.706C361.75 206.175 361.52 205.77 361.219 205.491C360.92 205.213 360.561 205.074 360.141 205.074C359.51 205.074 359.017 205.385 358.662 206.007C358.307 206.626 358.129 207.503 358.129 208.636C358.129 209.392 358.209 210.034 358.368 210.562C358.527 211.091 358.756 211.493 359.054 211.768C359.355 212.044 359.717 212.182 360.141 212.182Z" fill="black"/>
<rect width="76" height="120" transform="translate(0 220)" fill="#CAFFD1"/>
<path d="M34.9201 240H33.6275L37.3661 229.818H38.6388L42.3775 240H41.0849L38.0423 231.429H37.9627L34.9201 240ZM35.3974 236.023H40.6076V237.116H35.3974V236.023Z" fill="black"/>
<path d="M34.6802 270V259.818H38.2399C38.9492 259.818 39.5342 259.941 39.9949 260.186C40.4556 260.428 40.7986 260.754 41.024 261.165C41.2493 261.573 41.362 262.026 41.362 262.523C41.362 262.96 41.2842 263.321 41.1284 263.607C40.9759 263.892 40.7737 264.117 40.5218 264.283C40.2733 264.448 40.0031 264.571 39.7115 264.651V264.75C40.023 264.77 40.3362 264.879 40.6511 265.078C40.966 265.277 41.2295 265.562 41.4416 265.933C41.6537 266.304 41.7598 266.759 41.7598 267.295C41.7598 267.806 41.6438 268.265 41.4118 268.673C41.1797 269.08 40.8135 269.403 40.313 269.642C39.8126 269.881 39.1613 270 38.3592 270H34.6802ZM35.9132 268.906H38.3592C39.1646 268.906 39.7363 268.75 40.0744 268.439C40.4158 268.124 40.5865 267.743 40.5865 267.295C40.5865 266.951 40.4986 266.633 40.323 266.341C40.1473 266.046 39.8971 265.811 39.5723 265.635C39.2475 265.456 38.863 265.366 38.4189 265.366H35.9132V268.906ZM35.9132 264.293H38.2001C38.5713 264.293 38.9061 264.22 39.2044 264.074C39.506 263.928 39.7446 263.723 39.9203 263.457C40.0993 263.192 40.1887 262.881 40.1887 262.523C40.1887 262.075 40.033 261.696 39.7214 261.384C39.4099 261.069 38.916 260.912 38.2399 260.912H35.9132V264.293Z" fill="black"/>
<path d="M42.3334 293H41.1004C41.0275 292.645 40.8999 292.334 40.7176 292.065C40.5386 291.797 40.3199 291.571 40.0613 291.389C39.8061 291.204 39.5228 291.064 39.2112 290.972C38.8997 290.879 38.5748 290.832 38.2368 290.832C37.6203 290.832 37.0618 290.988 36.5613 291.3C36.0642 291.611 35.6681 292.07 35.3731 292.677C35.0815 293.283 34.9356 294.027 34.9356 294.909C34.9356 295.791 35.0815 296.535 35.3731 297.141C35.6681 297.748 36.0642 298.207 36.5613 298.518C37.0618 298.83 37.6203 298.986 38.2368 298.986C38.5748 298.986 38.8997 298.939 39.2112 298.847C39.5228 298.754 39.8061 298.616 40.0613 298.434C40.3199 298.248 40.5386 298.021 40.7176 297.753C40.8999 297.481 41.0275 297.17 41.1004 296.818H42.3334C42.2406 297.339 42.0715 297.804 41.8263 298.215C41.581 298.626 41.2761 298.976 40.9115 299.264C40.5469 299.549 40.1376 299.766 39.6835 299.915C39.2327 300.065 38.7505 300.139 38.2368 300.139C37.3684 300.139 36.5961 299.927 35.92 299.503C35.2439 299.079 34.7119 298.475 34.3241 297.693C33.9363 296.911 33.7425 295.983 33.7425 294.909C33.7425 293.835 33.9363 292.907 34.3241 292.125C34.7119 291.343 35.2439 290.74 35.92 290.315C36.5961 289.891 37.3684 289.679 38.2368 289.679C38.7505 289.679 39.2327 289.754 39.6835 289.903C40.1376 290.052 40.5469 290.271 40.9115 290.559C41.2761 290.844 41.581 291.192 41.8263 291.603C42.0715 292.011 42.2406 292.476 42.3334 293Z" fill="black"/>
<path d="M37.3438 330H34.2017V319.818H37.483C38.4706 319.818 39.3158 320.022 40.0185 320.43C40.7211 320.834 41.2597 321.416 41.6342 322.175C42.0088 322.93 42.196 323.835 42.196 324.889C42.196 325.95 42.0071 326.863 41.6293 327.629C41.2514 328.391 40.7012 328.978 39.9787 329.388C39.2562 329.796 38.3778 330 37.3438 330ZM35.4347 328.906H37.2642C38.1061 328.906 38.8037 328.744 39.3572 328.419C39.9107 328.094 40.3234 327.632 40.5952 327.032C40.867 326.432 41.0028 325.718 41.0028 324.889C41.0028 324.067 40.8686 323.36 40.6001 322.766C40.3317 322.17 39.9306 321.712 39.397 321.394C38.8634 321.073 38.1989 320.912 37.4034 320.912H35.4347V328.906Z" fill="black"/>
<rect width="364" height="120" transform="translate(76 220)" fill="white"/>
<rect x="76" y="220" width="91" height="30" stroke="black" stroke-width="0.5"/>
<rect x="167" y="220" width="91" height="30" fill="#B70003"/>
<rect x="167" y="220" width="91" height="30" stroke="black" stroke-width="0.5"/>
<rect x="258" y="220" width="91" height="30" fill="#B70003"/>
<rect x="258" y="220" width="91" height="30" stroke="black" stroke-width="0.5"/>
<rect x="349" y="220" width="91" height="30" stroke="black" stroke-width="0.5"/>
<rect x="76" y="250" width="91" height="30" stroke="black" stroke-width="0.5"/>
<rect x="167" y="250" width="91" height="30" fill="white"/>
<rect x="167" y="250" width="91" height="30" stroke="black" stroke-width="0.5"/>
<rect x="258" y="250" width="91" height="30" fill="white"/>
<rect x="258" y="250" width="91" height="30" stroke="black" stroke-width="0.5"/>
<rect x="349" y="250" width="91" height="30" stroke="black" stroke-width="0.5"/>
<rect x="76" y="280" width="91" height="30" stroke="black" stroke-width="0.5"/>
<rect x="167" y="280" width="91" height="30" fill="white"/>
<rect x="167" y="280" width="91" height="30" stroke="black" stroke-width="0.5"/>
<rect x="258" y="280" width="91" height="30" fill="white"/>
<rect x="258" y="280" width="91" height="30" stroke="black" stroke-width="0.5"/>
<rect x="349" y="280" width="91" height="30" stroke="black" stroke-width="0.5"/>
<rect x="76" y="310" width="91" height="30" stroke="black" stroke-width="0.5"/>
<rect x="167" y="310" width="91" height="30" fill="#B70003"/>
<rect x="167" y="310" width="91" height="30" stroke="black" stroke-width="0.5"/>
<rect x="258" y="310" width="91" height="30" fill="#B70003"/>
<rect x="258" y="310" width="91" height="30" stroke="black" stroke-width="0.5"/>
<rect x="349" y="310" width="91" height="30" stroke="black" stroke-width="0.5"/>
<rect y="830" width="430" height="51" rx="8" fill="#E4B028"/>
<path d="M173.584 851.392V849.364H183.141V851.392H179.578V861H177.146V851.392H173.584ZM187.175 849.364V861H184.714V849.364H187.175ZM189.199 861V849.364H197.04V851.392H191.659V854.165H196.636V856.193H191.659V858.972H197.062V861H189.199ZM190.182 848.409L192.472 846.642H193.778L196.08 848.409H194.335L193.136 847.455L191.92 848.409H190.182ZM195.483 847.409L196.812 845.278H198.688L196.852 847.409H195.483ZM198.996 861V849.364H203.587C204.469 849.364 205.221 849.532 205.842 849.869C206.464 850.203 206.937 850.667 207.263 851.261C207.592 851.852 207.757 852.534 207.757 853.307C207.757 854.08 207.59 854.761 207.257 855.352C206.924 855.943 206.441 856.403 205.808 856.733C205.179 857.062 204.418 857.227 203.524 857.227H200.598V855.256H203.126C203.6 855.256 203.99 855.174 204.297 855.011C204.607 854.845 204.839 854.616 204.99 854.324C205.145 854.028 205.223 853.689 205.223 853.307C205.223 852.92 205.145 852.583 204.99 852.295C204.839 852.004 204.607 851.778 204.297 851.619C203.986 851.456 203.592 851.375 203.115 851.375H201.456V861H198.996ZM212.615 851.392V849.364H222.172V851.392H218.609V861H216.178V851.392H212.615ZM223.746 861V849.364H226.206V854.165H231.2V849.364H233.655V861H231.2V856.193H226.206V861H223.746ZM235.683 861V849.364H243.524V851.392H238.143V854.165H243.121V856.193H238.143V858.972H243.547V861H235.683ZM256.173 855.182C256.173 856.451 255.933 857.53 255.452 858.42C254.974 859.311 254.323 859.991 253.497 860.46C252.675 860.926 251.751 861.159 250.724 861.159C249.69 861.159 248.762 860.924 247.94 860.455C247.118 859.985 246.469 859.305 245.991 858.415C245.514 857.525 245.276 856.447 245.276 855.182C245.276 853.913 245.514 852.833 245.991 851.943C246.469 851.053 247.118 850.375 247.94 849.909C248.762 849.439 249.69 849.205 250.724 849.205C251.751 849.205 252.675 849.439 253.497 849.909C254.323 850.375 254.974 851.053 255.452 851.943C255.933 852.833 256.173 853.913 256.173 855.182ZM253.679 855.182C253.679 854.36 253.556 853.667 253.31 853.102C253.067 852.538 252.724 852.11 252.281 851.818C251.838 851.527 251.319 851.381 250.724 851.381C250.13 851.381 249.611 851.527 249.168 851.818C248.724 852.11 248.38 852.538 248.134 853.102C247.891 853.667 247.77 854.36 247.77 855.182C247.77 856.004 247.891 856.697 248.134 857.261C248.38 857.826 248.724 858.254 249.168 858.545C249.611 858.837 250.13 858.983 250.724 858.983C251.319 858.983 251.838 858.837 252.281 858.545C252.724 858.254 253.067 857.826 253.31 857.261C253.556 856.697 253.679 856.004 253.679 855.182Z" fill="white"/>
</g>
<defs>
<clipPath id="clip0_4_253">
<rect width="430" height="932" fill="white"/>
</clipPath>
</defs>
</svg>
